<svg xmlns="http://www.w3.org/2000/svg" viewBox="0 0 1254 1254" role="img" aria-labelledby="title desc">
  <title id="title">4ztex icon</title>
  <desc id="desc">A geometric blue to purple vector monogram icon inspired by the text 4ztex.</desc>
  <defs>
    <linearGradient id="logoGradient" x1="234" y1="177" x2="1004" y2="1023" gradientUnits="userSpaceOnUse">
      <stop offset="0%" stop-color="#08A9F5"/>
      <stop offset="42%" stop-color="#2466F2"/>
      <stop offset="72%" stop-color="#6D23E6"/>
      <stop offset="100%" stop-color="#B526E7"/>
    </linearGradient>
  </defs>
  <g shape-rendering="geometricPrecision">
    <path d="M 628.0 177.0 L 236.0 611.0 L 544.0 620.0 L 277.0 924.0 L 651.0 924.0 L 705.0 869.0 L 754.0 923.0 L 660.0 1023.0 L 738.0 1021.0 L 793.0 964.0 L 852.0 1022.0 L 929.0 1023.0 L 833.0 922.0 L 907.0 842.0 L 835.0 842.0 L 793.0 880.0 L 752.0 842.0 L 461.0 841.0 L 672.0 621.0 L 929.0 618.0 L 1004.0 543.0 L 402.0 542.0 L 629.0 297.0 Z" fill="url(#logoGradient)"/>
    <path d="M 860.0 380.0 L 727.0 380.0 L 725.0 287.0 L 580.0 436.0 L 656.0 436.0 L 657.0 529.0 L 726.0 529.0 L 726.0 437.0 L 808.0 436.0 Z" fill="url(#logoGradient)"/>
    <path d="M 573.0 807.0 L 929.0 807.0 L 985.0 750.0 L 728.0 750.0 L 835.0 633.0 L 741.0 632.0 Z" fill="url(#logoGradient)"/>
    <path d="M 793.0 709.0 L 930.0 709.0 L 970.0 664.0 L 835.0 664.0 Z" fill="url(#logoGradient)"/>
  </g>
</svg>
